<svg width="20" height="27" viewBox="0 0 20 27" fill="none" xmlns="http://www.w3.org/2000/svg">
<path d="M19.1965 9.65375C19.205 4.33136 14.9166 0.0108002 9.61534 7.38396e-05C4.31409 -0.00850721 0.0106983 4.29703 1.45709e-05 9.61943C-0.0042589 12.0843 0.931632 14.457 2.61752 16.2504V25.4214C2.61752 25.9063 3.00854 26.2967 3.49145 26.2967C3.60897 26.2967 3.72435 26.2731 3.83119 26.228L9.59824 23.7481L15.3653 26.228C15.4721 26.2731 15.5897 26.2988 15.705 26.2988C15.876 26.2988 16.0426 26.2452 16.1858 26.1508C16.4294 25.9899 16.5768 25.7175 16.579 25.4236V16.2526C18.2563 14.4677 19.1922 12.1101 19.1965 9.6559V9.65375ZM9.59824 1.76992C13.9358 1.76992 17.4508 5.29887 17.4508 9.65375C17.4508 14.0086 13.9358 17.5376 9.59824 17.5376C5.26066 17.5376 1.74573 14.0086 1.74573 9.65375C1.74573 5.29887 5.26066 1.76992 9.59824 1.76992ZM9.93798 21.989C9.72004 21.8968 9.47431 21.8968 9.2585 21.989L4.36323 24.0914V17.7221C7.54697 19.8008 11.6495 19.8008 14.8333 17.7221V24.0914L9.93798 21.989Z" fill="#FFD943"/>
<path d="M4.55558 10.7756L4.73079 10.9064C5.0278 11.1124 5.15173 11.4921 5.03635 11.8353L4.96584 12.0456C4.53849 13.4078 5.29276 14.858 6.64959 15.2849C7.42736 15.5316 8.27564 15.3922 8.93589 14.9095L9.11111 14.7872C9.39957 14.5684 9.79914 14.5684 10.0876 14.7872L10.2628 14.9095C11.4679 15.7118 13.0919 15.3815 13.891 14.1737C14.3098 13.5387 14.4359 12.7535 14.2329 12.0198L14.1624 11.8096C14.047 11.4663 14.1709 11.0888 14.4679 10.8807L14.6431 10.7498C15.7585 9.82523 15.9145 8.16908 14.9935 7.04926C14.5213 6.47647 13.829 6.12894 13.0897 6.09676H12.8718C12.5171 6.08174 12.2072 5.85434 12.0876 5.51968L12.0534 5.27512C11.547 3.91503 10.0385 3.2264 8.6859 3.73483C7.9765 4.00084 7.41667 4.5629 7.15172 5.27512L7.08121 5.48536C6.96155 5.82002 6.64959 6.04956 6.29702 6.06243H6.11326C4.66883 6.12679 3.55132 7.35388 3.61542 8.80408C3.64961 9.56136 4.00644 10.2671 4.59618 10.7391L4.56199 10.7734L4.55558 10.7756ZM5.27994 8.42866C5.38677 8.06396 5.73079 7.82369 6.10899 7.85158H6.32694C7.42949 7.84515 8.41026 7.14365 8.77778 6.0989L8.83974 5.89725C9.0406 5.45747 9.55769 5.26225 9.99572 5.46391C10.188 5.55186 10.3397 5.70632 10.4273 5.89725L10.4893 6.0989C10.8419 7.16081 11.8269 7.88162 12.9401 7.89449H13.0876C13.5448 7.89449 13.9188 8.26347 13.9188 8.72256C13.9188 8.99072 13.7927 9.24386 13.5748 9.40046L13.3995 9.53132C12.4936 10.1856 12.1154 11.3569 12.4658 12.4231L12.5363 12.6334C12.626 13.1096 12.3162 13.5666 11.8419 13.6567C11.641 13.6953 11.4316 13.661 11.2543 13.5601L11.079 13.4378C10.1709 12.7878 8.95085 12.7878 8.04274 13.4378L7.86753 13.5601C7.44659 13.7961 6.91454 13.6459 6.6795 13.2233C6.57907 13.0431 6.54489 12.835 6.58335 12.6334L6.65386 12.4231C7.00428 11.3591 6.62822 10.1878 5.7201 9.53132L5.54489 9.40046C5.23934 9.1795 5.12609 8.77619 5.27353 8.42866H5.27994Z" fill="#FFD943"/>
</svg>
