<svg width="18" height="16" viewBox="0 0 18 16" fill="none" xmlns="http://www.w3.org/2000/svg">
<path d="M10.9076 1.77609L12.5539 3.55435H16.1993V14.2196H1.80066V3.55435H5.44606L7.09245 1.77609H10.9076ZM11.6988 0H6.29901L4.65263 1.77826H1.80066C0.811069 1.77826 0 2.57924 0 3.55652V14.2217C0 15.199 0.811069 16 1.80066 16H16.1993C17.1889 16 18 15.2012 18 14.2217V3.55652C18 2.57924 17.1911 1.77826 16.1993 1.77826H13.3474L11.701 0H11.6988ZM8.9989 6.22065C10.4844 6.22065 11.6988 7.41994 11.6988 8.88695C11.6988 10.354 10.4844 11.5533 8.9989 11.5533C7.51341 11.5533 6.29901 10.354 6.29901 8.88695C6.29901 7.41994 7.51341 6.22065 8.9989 6.22065ZM8.9989 4.44239C6.515 4.44239 4.49835 6.43395 4.49835 8.88695C4.49835 11.34 6.515 13.3315 8.9989 13.3315C11.4828 13.3315 13.4994 11.34 13.4994 8.88695C13.4994 6.43395 11.4828 4.44239 8.9989 4.44239Z" fill="#FFD943"/>
</svg>
