<svg width="17" height="17" viewBox="0 0 17 17" fill="none" xmlns="http://www.w3.org/2000/svg">
<path d="M16.4072 6.86997C15.9243 6.28915 15.2082 5.95398 14.4526 5.9519H10.5766L11.0533 4.73613C11.7298 2.91872 10.8035 0.897297 8.98629 0.220713C8.5887 0.0729052 8.1703 -0.00203959 7.74565 4.22088e-05C7.41259 4.22088e-05 7.10868 0.197813 6.97129 0.501755L4.54831 5.94982H2.54997C1.14072 5.94982 0 7.09064 0 8.50002V14.4498C0 15.8592 1.14072 17 2.54997 17H13.3701C14.6004 17 15.6558 16.1194 15.8785 14.9099L16.9588 8.9601C17.0941 8.21482 16.8922 7.44871 16.4072 6.86789V6.86997ZM4.25272 15.3033H2.55205C2.08161 15.3033 1.70275 14.9224 1.70275 14.454V8.50418C1.70275 8.0337 2.08369 7.65481 2.55205 7.65481H4.25272V15.3054V15.3033ZM15.3019 8.65616L14.2215 14.6059C14.1466 15.014 13.7865 15.3096 13.3722 15.3033H5.95131V6.98031L8.26397 1.7779C9.21526 2.05478 9.76064 3.04988 9.48379 4.00126C9.46922 4.04914 9.45465 4.09494 9.43591 4.14074L8.98629 5.35651C8.65739 6.23711 9.10494 7.21555 9.98338 7.54448C10.1728 7.61526 10.3726 7.65065 10.5746 7.65273H14.4505C14.7024 7.65273 14.9438 7.76515 15.1041 7.95875C15.2707 8.15028 15.3414 8.40634 15.2998 8.65616H15.3019Z" fill="#FFD943"/>
</svg>
