<svg width="280" height="56" viewBox="0 0 280 56" fill="none" xmlns="http://www.w3.org/2000/svg">
<path d="M75.522 46V39.028H72.474V40.084C72.474 41.08 72.424 41.928 72.324 42.628C72.228 43.324 72.074 43.898 71.862 44.35C71.654 44.798 71.376 45.15 71.028 45.406C70.684 45.662 70.264 45.85 69.768 45.97L69.222 44.686C69.578 44.602 69.87 44.476 70.098 44.308C70.33 44.14 70.51 43.89 70.638 43.558C70.766 43.226 70.856 42.78 70.908 42.22C70.96 41.66 70.986 40.948 70.986 40.084V37.6H77.082V46H75.522ZM69.222 48.13V44.686L70.212 44.734L70.752 44.572H78.426V48.13H76.95V46H70.698V48.13H69.222ZM80.8003 46V37.6H86.3863V38.968H82.3603V41.002H85.8043V42.28H82.3603V44.62H86.4283V46H80.8003ZM90.7957 46V39.028H88.4737V37.6H94.6837V39.028H92.3617V46H90.7957ZM97.0386 46V37.6H102.625V38.968H98.5986V41.002H102.043V42.28H98.5986V44.62H102.667V46H97.0386ZM105.48 46V37.6H107.028V43.486L110.964 37.6H112.488V46H110.94V40.066L106.992 46H105.48ZM108.984 36.64C108.52 36.64 108.114 36.548 107.766 36.364C107.418 36.176 107.148 35.918 106.956 35.59C106.768 35.262 106.68 34.884 106.692 34.456H107.958C107.946 34.8 108.032 35.078 108.216 35.29C108.404 35.498 108.66 35.602 108.984 35.602C109.308 35.602 109.562 35.498 109.746 35.29C109.934 35.078 110.018 34.8 109.998 34.456H111.27C111.282 34.876 111.19 35.252 110.994 35.584C110.802 35.912 110.532 36.17 110.184 36.358C109.836 36.546 109.436 36.64 108.984 36.64ZM115.375 46.15L114.817 44.716C115.089 44.632 115.319 44.534 115.507 44.422C115.699 44.306 115.859 44.15 115.987 43.954C116.115 43.758 116.215 43.5 116.287 43.18C116.363 42.856 116.415 42.448 116.443 41.956C116.475 41.46 116.491 40.856 116.491 40.144V37.6H122.515V46H120.955V39.028H117.979V40.084C117.979 40.948 117.951 41.696 117.895 42.328C117.843 42.96 117.757 43.496 117.637 43.936C117.517 44.376 117.355 44.74 117.151 45.028C116.951 45.316 116.705 45.548 116.413 45.724C116.121 45.9 115.775 46.042 115.375 46.15ZM125.632 46V37.6H127.18V43.486L131.116 37.6H132.64V46H131.092V40.066L127.144 46H125.632ZM135.761 46V37.6H137.321V40.864H141.137V37.6H142.697V46H141.137V42.292H137.321V46H135.761ZM145.82 46V37.6H150.704V39.028H147.38V46H145.82ZM158.875 44.032C158.451 44.032 158.073 43.938 157.741 43.75C157.409 43.562 157.147 43.306 156.955 42.982C156.767 42.654 156.673 42.284 156.673 41.872C156.673 41.456 156.767 41.086 156.955 40.762C157.147 40.438 157.409 40.182 157.741 39.994C158.073 39.806 158.451 39.712 158.875 39.712C159.299 39.712 159.677 39.806 160.009 39.994C160.341 40.178 160.601 40.434 160.789 40.762C160.981 41.086 161.077 41.456 161.077 41.872C161.077 42.284 160.981 42.654 160.789 42.982C160.601 43.306 160.341 43.562 160.009 43.75C159.677 43.938 159.299 44.032 158.875 44.032ZM168.06 46.15L167.472 44.722C167.96 44.614 168.394 44.452 168.774 44.236C169.158 44.02 169.502 43.73 169.806 43.366C170.114 43.002 170.4 42.548 170.664 42.004L172.794 37.6H174.6L172.086 42.574C171.798 43.146 171.506 43.64 171.21 44.056C170.914 44.472 170.604 44.822 170.28 45.106C169.96 45.386 169.616 45.61 169.248 45.778C168.884 45.946 168.488 46.07 168.06 46.15ZM170.418 43.462L167.208 37.6H169.104L171.468 42.112L170.418 43.462ZM175.95 46L178.632 41.704L176.082 37.6H177.954L179.754 40.54L181.656 37.6H183.474L180.816 41.74L183.546 46H181.662L179.688 42.874L177.78 46H175.95ZM189.558 46.18C188.922 46.18 188.332 46.07 187.788 45.85C187.248 45.626 186.778 45.316 186.378 44.92C185.978 44.524 185.668 44.06 185.448 43.528C185.228 42.996 185.118 42.42 185.118 41.8C185.118 41.176 185.228 40.598 185.448 40.066C185.668 39.534 185.978 39.07 186.378 38.674C186.778 38.278 187.248 37.97 187.788 37.75C188.332 37.53 188.922 37.42 189.558 37.42C190.19 37.42 190.776 37.532 191.316 37.756C191.856 37.98 192.326 38.292 192.726 38.692C193.126 39.092 193.438 39.558 193.662 40.09C193.886 40.618 193.998 41.188 193.998 41.8C193.998 42.42 193.886 42.996 193.662 43.528C193.438 44.06 193.126 44.524 192.726 44.92C192.326 45.316 191.856 45.626 191.316 45.85C190.776 46.07 190.19 46.18 189.558 46.18ZM189.558 44.71C189.954 44.71 190.322 44.642 190.662 44.506C191.006 44.366 191.304 44.17 191.556 43.918C191.812 43.662 192.01 43.356 192.15 43C192.294 42.64 192.366 42.24 192.366 41.8C192.366 41.212 192.242 40.7 191.994 40.264C191.746 39.828 191.41 39.49 190.986 39.25C190.562 39.01 190.086 38.89 189.558 38.89C189.158 38.89 188.788 38.958 188.448 39.094C188.108 39.23 187.81 39.426 187.554 39.682C187.302 39.938 187.104 40.244 186.96 40.6C186.82 40.956 186.75 41.356 186.75 41.8C186.75 42.388 186.872 42.9 187.116 43.336C187.364 43.772 187.7 44.11 188.124 44.35C188.548 44.59 189.026 44.71 189.558 44.71ZM201.874 46V39.028H198.826V40.084C198.826 41.08 198.776 41.928 198.676 42.628C198.58 43.324 198.426 43.898 198.214 44.35C198.006 44.798 197.728 45.15 197.38 45.406C197.036 45.662 196.616 45.85 196.12 45.97L195.574 44.686C195.93 44.602 196.222 44.476 196.45 44.308C196.682 44.14 196.862 43.89 196.99 43.558C197.118 43.226 197.208 42.78 197.26 42.22C197.312 41.66 197.338 40.948 197.338 40.084V37.6H203.434V46H201.874ZM195.574 48.13V44.686L196.564 44.734L197.104 44.572H204.778V48.13H203.302V46H197.05V48.13H195.574ZM212.973 44.032C212.549 44.032 212.171 43.938 211.839 43.75C211.507 43.562 211.245 43.306 211.053 42.982C210.865 42.654 210.771 42.284 210.771 41.872C210.771 41.456 210.865 41.086 211.053 40.762C211.245 40.438 211.507 40.182 211.839 39.994C212.171 39.806 212.549 39.712 212.973 39.712C213.397 39.712 213.775 39.806 214.107 39.994C214.439 40.178 214.699 40.434 214.887 40.762C215.079 41.086 215.175 41.456 215.175 41.872C215.175 42.284 215.079 42.654 214.887 42.982C214.699 43.306 214.439 43.562 214.107 43.75C213.775 43.938 213.397 44.032 212.973 44.032ZM224.323 46.18C223.675 46.18 223.085 46.098 222.553 45.934C222.021 45.77 221.551 45.534 221.143 45.226L221.857 43.99C222.145 44.242 222.491 44.442 222.895 44.59C223.303 44.734 223.729 44.806 224.173 44.806C224.557 44.806 224.889 44.752 225.169 44.644C225.449 44.536 225.665 44.386 225.817 44.194C225.973 44.002 226.051 43.778 226.051 43.522C226.051 43.122 225.915 42.82 225.643 42.616C225.371 42.408 224.949 42.304 224.377 42.304H222.715V41.074H224.257C224.577 41.074 224.851 41.028 225.079 40.936C225.311 40.844 225.489 40.714 225.613 40.546C225.737 40.374 225.799 40.168 225.799 39.928C225.799 39.692 225.737 39.494 225.613 39.334C225.493 39.174 225.311 39.054 225.067 38.974C224.827 38.89 224.533 38.848 224.185 38.848C223.797 38.848 223.421 38.912 223.057 39.04C222.697 39.168 222.389 39.346 222.133 39.574L221.407 38.428C221.771 38.104 222.211 37.856 222.727 37.684C223.243 37.508 223.795 37.42 224.383 37.42C224.999 37.42 225.529 37.51 225.973 37.69C226.417 37.866 226.757 38.12 226.993 38.452C227.233 38.784 227.353 39.182 227.353 39.646C227.353 39.902 227.295 40.152 227.179 40.396C227.063 40.636 226.909 40.852 226.717 41.044C226.529 41.232 226.323 41.376 226.099 41.476C226.567 41.628 226.945 41.882 227.233 42.238C227.525 42.594 227.669 43.042 227.665 43.582C227.665 44.07 227.525 44.51 227.245 44.902C226.969 45.294 226.579 45.606 226.075 45.838C225.575 46.066 224.991 46.18 224.323 46.18ZM229.364 46L232.586 37.6H234.326L237.614 46H235.856L235.142 44.098H231.764L231.074 46H229.364ZM232.148 42.772H234.746L233.426 39.364L232.148 42.772ZM250.735 48.13V46H249.955V44.572H252.211V48.13H250.735ZM239.773 46V37.6H241.333V44.572H244.543V37.6H246.103V44.572H249.307V37.6H250.867V46H239.773ZM254.589 46V37.6H256.137V43.486L260.073 37.6H261.597V46H260.049V40.066L256.101 46H254.589ZM266.272 46V39.028H263.95V37.6H270.16V39.028H267.838V46H266.272ZM271.016 46L274.238 37.6H275.978L279.266 46H277.508L276.794 44.098H273.416L272.726 46H271.016ZM273.8 42.772H276.398L275.078 39.364L273.8 42.772Z" fill="white"/>
<path d="M78.675 28V21.3375C77.9917 21.5292 77.325 21.6792 76.675 21.7875C76.0333 21.8958 75.3542 21.95 74.6375 21.95C73.3042 21.95 72.1417 21.725 71.15 21.275C70.1667 20.825 69.4042 20.1125 68.8625 19.1375C68.3292 18.1542 68.0625 16.8708 68.0625 15.2875V10.5H72.2125V14.725C72.2125 16.0333 72.4875 16.9542 73.0375 17.4875C73.5875 18.0208 74.3833 18.2875 75.425 18.2875C76.0833 18.2875 76.6667 18.2542 77.175 18.1875C77.6833 18.1125 78.1833 18.0167 78.675 17.9V10.5H82.825V28H78.675ZM86.958 28V10.5H91.0705V21.4375L98.158 10.5H102.283V28H98.1705V16.925L91.058 28H86.958ZM114.516 28.375C112.708 28.375 111.112 28.0042 109.729 27.2625C108.345 26.5208 107.266 25.4708 106.491 24.1125C105.716 22.7542 105.329 21.15 105.329 19.3C105.329 17.95 105.554 16.7167 106.004 15.6C106.462 14.475 107.104 13.5042 107.929 12.6875C108.762 11.8708 109.741 11.2417 110.866 10.8C111.999 10.35 113.237 10.125 114.579 10.125C116.037 10.125 117.262 10.3083 118.254 10.675C119.245 11.0417 120.141 11.5625 120.941 12.2375L118.866 15.65C118.383 15.15 117.799 14.7792 117.116 14.5375C116.433 14.2875 115.679 14.1625 114.854 14.1625C114.037 14.1625 113.308 14.2833 112.666 14.525C112.033 14.7583 111.491 15.0958 111.041 15.5375C110.599 15.9792 110.262 16.5125 110.029 17.1375C109.795 17.7625 109.679 18.4625 109.679 19.2375C109.679 20.3042 109.887 21.2167 110.304 21.975C110.729 22.7333 111.333 23.3167 112.116 23.725C112.899 24.125 113.837 24.325 114.929 24.325C115.712 24.325 116.487 24.2083 117.254 23.975C118.029 23.7333 118.762 23.3458 119.454 22.8125L121.354 26.3C120.545 26.925 119.579 27.4292 118.454 27.8125C117.329 28.1875 116.016 28.375 114.516 28.375ZM126.947 28V14.2875H122.285V10.5H135.785V14.2875H131.122V28H126.947ZM145.94 28.375C144.599 28.375 143.357 28.1458 142.215 27.6875C141.082 27.2208 140.095 26.575 139.253 25.75C138.411 24.925 137.757 23.9583 137.29 22.85C136.832 21.7417 136.603 20.5417 136.603 19.25C136.603 17.95 136.832 16.7458 137.29 15.6375C137.757 14.5292 138.411 13.5625 139.253 12.7375C140.095 11.9125 141.082 11.2708 142.215 10.8125C143.357 10.3542 144.599 10.125 145.94 10.125C147.29 10.125 148.532 10.3583 149.665 10.825C150.799 11.2917 151.786 11.9417 152.628 12.775C153.47 13.6083 154.12 14.5792 154.578 15.6875C155.045 16.7875 155.278 17.975 155.278 19.25C155.278 20.5417 155.045 21.7417 154.578 22.85C154.12 23.9583 153.47 24.925 152.628 25.75C151.786 26.575 150.799 27.2208 149.665 27.6875C148.532 28.1458 147.29 28.375 145.94 28.375ZM145.94 24.475C146.665 24.475 147.328 24.3542 147.928 24.1125C148.536 23.8708 149.065 23.5208 149.515 23.0625C149.965 22.6042 150.311 22.0542 150.553 21.4125C150.803 20.7625 150.928 20.0417 150.928 19.25C150.928 18.1833 150.711 17.2583 150.278 16.475C149.853 15.6917 149.261 15.0875 148.503 14.6625C147.753 14.2292 146.899 14.0125 145.94 14.0125C145.224 14.0125 144.561 14.1375 143.953 14.3875C143.345 14.6292 142.815 14.9792 142.365 15.4375C141.924 15.8958 141.578 16.4458 141.328 17.0875C141.078 17.7292 140.953 18.45 140.953 19.25C140.953 20.3083 141.17 21.2292 141.603 22.0125C142.036 22.7958 142.628 23.4042 143.378 23.8375C144.136 24.2625 144.99 24.475 145.94 24.475ZM164.082 28V10.5H168.195V21.4375L175.282 10.5H179.407V28H175.295V16.925L168.182 28H164.082ZM192.377 28V14.2875H187.714V10.5H201.214V14.2875H196.552V28H192.377ZM211.37 28.375C210.028 28.375 208.787 28.1458 207.645 27.6875C206.512 27.2208 205.524 26.575 204.683 25.75C203.841 24.925 203.187 23.9583 202.72 22.85C202.262 21.7417 202.033 20.5417 202.033 19.25C202.033 17.95 202.262 16.7458 202.72 15.6375C203.187 14.5292 203.841 13.5625 204.683 12.7375C205.524 11.9125 206.512 11.2708 207.645 10.8125C208.787 10.3542 210.028 10.125 211.37 10.125C212.72 10.125 213.962 10.3583 215.095 10.825C216.228 11.2917 217.216 11.9417 218.058 12.775C218.899 13.6083 219.549 14.5792 220.008 15.6875C220.474 16.7875 220.708 17.975 220.708 19.25C220.708 20.5417 220.474 21.7417 220.008 22.85C219.549 23.9583 218.899 24.925 218.058 25.75C217.216 26.575 216.228 27.2208 215.095 27.6875C213.962 28.1458 212.72 28.375 211.37 28.375ZM211.37 24.475C212.095 24.475 212.758 24.3542 213.358 24.1125C213.966 23.8708 214.495 23.5208 214.945 23.0625C215.395 22.6042 215.741 22.0542 215.983 21.4125C216.233 20.7625 216.358 20.0417 216.358 19.25C216.358 18.1833 216.141 17.2583 215.708 16.475C215.283 15.6917 214.691 15.0875 213.933 14.6625C213.183 14.2292 212.328 14.0125 211.37 14.0125C210.653 14.0125 209.991 14.1375 209.383 14.3875C208.774 14.6292 208.245 14.9792 207.795 15.4375C207.353 15.8958 207.008 16.4458 206.758 17.0875C206.508 17.7292 206.383 18.45 206.383 19.25C206.383 20.3083 206.599 21.2292 207.033 22.0125C207.466 22.7958 208.058 23.4042 208.808 23.8375C209.566 24.2625 210.42 24.475 211.37 24.475ZM233.363 28V21.3375C232.679 21.5292 232.013 21.6792 231.363 21.7875C230.721 21.8958 230.042 21.95 229.325 21.95C227.992 21.95 226.829 21.725 225.838 21.275C224.854 20.825 224.092 20.1125 223.55 19.1375C223.017 18.1542 222.75 16.8708 222.75 15.2875V10.5H226.9V14.725C226.9 16.0333 227.175 16.9542 227.725 17.4875C228.275 18.0208 229.071 18.2875 230.113 18.2875C230.771 18.2875 231.354 18.2542 231.863 18.1875C232.371 18.1125 232.871 18.0167 233.363 17.9V10.5H237.513V28H233.363ZM252.408 28L245.371 18.95L251.733 10.5H256.908L250.433 18.9375L257.746 28H252.408ZM241.646 28V10.5H245.796V16.9875H249.096V20.775H245.796V28H241.646ZM258.201 28L264.738 10.5H269.551L276.151 28H271.476L270.238 24.45H263.963L262.751 28H258.201ZM264.901 20.9875H269.276L267.076 14.9375L264.901 20.9875Z" fill="url(#paint0_linear_9473_953)"/>
<circle cx="28" cy="28" r="27.5" fill="#FFD943" stroke="white"/>
<circle cx="28.5" cy="27.5" r="10" fill="#040404" stroke="white"/>
<defs>
<linearGradient id="paint0_linear_9473_953" x1="67" y1="19.5" x2="277" y2="19.5" gradientUnits="userSpaceOnUse">
<stop stop-color="#FFD943"/>
<stop offset="1" stop-color="#FFF4D4"/>
</linearGradient>
</defs>
</svg>
