<svg width="212" height="38" viewBox="0 0 212 38" fill="none" xmlns="http://www.w3.org/2000/svg">
<path d="M7.4595 35.875V28.903H4.4115V29.959C4.4115 30.955 4.3615 31.803 4.2615 32.503C4.1655 33.199 4.0115 33.773 3.7995 34.225C3.5915 34.673 3.3135 35.025 2.9655 35.281C2.6215 35.537 2.2015 35.725 1.7055 35.845L1.1595 34.561C1.5155 34.477 1.8075 34.351 2.0355 34.183C2.2675 34.015 2.4475 33.765 2.5755 33.433C2.7035 33.101 2.7935 32.655 2.8455 32.095C2.8975 31.535 2.9235 30.823 2.9235 29.959V27.475H9.0195V35.875H7.4595ZM1.1595 38.005V34.561L2.1495 34.609L2.6895 34.447H10.3635V38.005H8.8875V35.875H2.6355V38.005H1.1595Z" fill="#040404"/>
<path d="M12.7378 35.875V27.475H18.3238V28.843H14.2978V30.877H17.7418V32.155H14.2978V34.495H18.3658V35.875H12.7378Z" fill="#040404"/>
<path d="M22.7332 35.875V28.903H20.4112V27.475H26.6212V28.903H24.2992V35.875H22.7332Z" fill="#040404"/>
<path d="M28.9761 35.875V27.475H34.5621V28.843H30.5361V30.877H33.9801V32.155H30.5361V34.495H34.6041V35.875H28.9761Z" fill="#040404"/>
<path d="M37.4175 35.875V27.475H38.9655V33.361L42.9015 27.475H44.4255V35.875H42.8775V29.941L38.9295 35.875H37.4175ZM40.9215 26.515C40.4575 26.515 40.0515 26.423 39.7035 26.239C39.3555 26.051 39.0855 25.793 38.8935 25.465C38.7055 25.137 38.6175 24.759 38.6295 24.331H39.8955C39.8835 24.675 39.9695 24.953 40.1535 25.165C40.3415 25.373 40.5975 25.477 40.9215 25.477C41.2455 25.477 41.4995 25.373 41.6835 25.165C41.8715 24.953 41.9555 24.675 41.9355 24.331H43.2075C43.2195 24.751 43.1275 25.127 42.9315 25.459C42.7395 25.787 42.4695 26.045 42.1215 26.233C41.7735 26.421 41.3735 26.515 40.9215 26.515Z" fill="#040404"/>
<path d="M47.3124 36.025L46.7544 34.591C47.0264 34.507 47.2564 34.409 47.4444 34.297C47.6364 34.181 47.7964 34.025 47.9244 33.829C48.0524 33.633 48.1524 33.375 48.2244 33.055C48.3004 32.731 48.3524 32.323 48.3804 31.831C48.4124 31.335 48.4284 30.731 48.4284 30.019V27.475H54.4524V35.875H52.8924V28.903H49.9164V29.959C49.9164 30.823 49.8884 31.571 49.8324 32.203C49.7804 32.835 49.6944 33.371 49.5744 33.811C49.4544 34.251 49.2924 34.615 49.0884 34.903C48.8884 35.191 48.6424 35.423 48.3504 35.599C48.0584 35.775 47.7124 35.917 47.3124 36.025Z" fill="#040404"/>
<path d="M57.5698 35.875V27.475H59.1178V33.361L63.0538 27.475H64.5778V35.875H63.0298V29.941L59.0818 35.875H57.5698Z" fill="#040404"/>
<path d="M67.6987 35.875V27.475H69.2587V30.739H73.0747V27.475H74.6347V35.875H73.0747V32.167H69.2587V35.875H67.6987Z" fill="#040404"/>
<path d="M77.7573 35.875V27.475H82.6413V28.903H79.3173V35.875H77.7573Z" fill="#040404"/>
<path d="M90.8125 33.907C90.3885 33.907 90.0105 33.813 89.6785 33.625C89.3465 33.437 89.0845 33.181 88.8925 32.857C88.7045 32.529 88.6105 32.159 88.6105 31.747C88.6105 31.331 88.7045 30.961 88.8925 30.637C89.0845 30.313 89.3465 30.057 89.6785 29.869C90.0105 29.681 90.3885 29.587 90.8125 29.587C91.2365 29.587 91.6145 29.681 91.9465 29.869C92.2785 30.053 92.5385 30.309 92.7265 30.637C92.9185 30.961 93.0145 31.331 93.0145 31.747C93.0145 32.159 92.9185 32.529 92.7265 32.857C92.5385 33.181 92.2785 33.437 91.9465 33.625C91.6145 33.813 91.2365 33.907 90.8125 33.907Z" fill="#040404"/>
<path d="M99.9973 36.025L99.4093 34.597C99.8973 34.489 100.331 34.327 100.711 34.111C101.095 33.895 101.439 33.605 101.743 33.241C102.051 32.877 102.337 32.423 102.601 31.879L104.731 27.475H106.537L104.023 32.449C103.735 33.021 103.443 33.515 103.147 33.931C102.851 34.347 102.541 34.697 102.217 34.981C101.897 35.261 101.553 35.485 101.185 35.653C100.821 35.821 100.425 35.945 99.9973 36.025ZM102.355 33.337L99.1453 27.475H101.041L103.405 31.987L102.355 33.337Z" fill="#040404"/>
<path d="M107.887 35.875L110.569 31.579L108.019 27.475H109.891L111.691 30.415L113.593 27.475H115.411L112.753 31.615L115.483 35.875H113.599L111.625 32.749L109.717 35.875H107.887Z" fill="#040404"/>
<path d="M121.496 36.055C120.86 36.055 120.27 35.945 119.726 35.725C119.186 35.501 118.716 35.191 118.316 34.795C117.916 34.399 117.606 33.935 117.386 33.403C117.166 32.871 117.056 32.295 117.056 31.675C117.056 31.051 117.166 30.473 117.386 29.941C117.606 29.409 117.916 28.945 118.316 28.549C118.716 28.153 119.186 27.845 119.726 27.625C120.27 27.405 120.86 27.295 121.496 27.295C122.128 27.295 122.714 27.407 123.254 27.631C123.794 27.855 124.264 28.167 124.664 28.567C125.064 28.967 125.376 29.433 125.6 29.965C125.824 30.493 125.936 31.063 125.936 31.675C125.936 32.295 125.824 32.871 125.6 33.403C125.376 33.935 125.064 34.399 124.664 34.795C124.264 35.191 123.794 35.501 123.254 35.725C122.714 35.945 122.128 36.055 121.496 36.055ZM121.496 34.585C121.892 34.585 122.26 34.517 122.6 34.381C122.944 34.241 123.242 34.045 123.494 33.793C123.75 33.537 123.948 33.231 124.088 32.875C124.232 32.515 124.304 32.115 124.304 31.675C124.304 31.087 124.18 30.575 123.932 30.139C123.684 29.703 123.348 29.365 122.924 29.125C122.5 28.885 122.024 28.765 121.496 28.765C121.096 28.765 120.726 28.833 120.386 28.969C120.046 29.105 119.748 29.301 119.492 29.557C119.24 29.813 119.042 30.119 118.898 30.475C118.758 30.831 118.688 31.231 118.688 31.675C118.688 32.263 118.81 32.775 119.054 33.211C119.302 33.647 119.638 33.985 120.062 34.225C120.486 34.465 120.964 34.585 121.496 34.585Z" fill="#040404"/>
<path d="M133.811 35.875V28.903H130.763V29.959C130.763 30.955 130.713 31.803 130.613 32.503C130.517 33.199 130.363 33.773 130.151 34.225C129.943 34.673 129.665 35.025 129.317 35.281C128.973 35.537 128.553 35.725 128.057 35.845L127.511 34.561C127.867 34.477 128.159 34.351 128.387 34.183C128.619 34.015 128.799 33.765 128.927 33.433C129.055 33.101 129.145 32.655 129.197 32.095C129.249 31.535 129.275 30.823 129.275 29.959V27.475H135.371V35.875H133.811ZM127.511 38.005V34.561L128.501 34.609L129.041 34.447H136.715V38.005H135.239V35.875H128.987V38.005H127.511Z" fill="#040404"/>
<path d="M144.91 33.907C144.486 33.907 144.108 33.813 143.776 33.625C143.444 33.437 143.182 33.181 142.99 32.857C142.802 32.529 142.708 32.159 142.708 31.747C142.708 31.331 142.802 30.961 142.99 30.637C143.182 30.313 143.444 30.057 143.776 29.869C144.108 29.681 144.486 29.587 144.91 29.587C145.334 29.587 145.712 29.681 146.044 29.869C146.376 30.053 146.636 30.309 146.824 30.637C147.016 30.961 147.112 31.331 147.112 31.747C147.112 32.159 147.016 32.529 146.824 32.857C146.636 33.181 146.376 33.437 146.044 33.625C145.712 33.813 145.334 33.907 144.91 33.907Z" fill="#040404"/>
<path d="M156.261 36.055C155.613 36.055 155.023 35.973 154.491 35.809C153.959 35.645 153.489 35.409 153.081 35.101L153.795 33.865C154.083 34.117 154.429 34.317 154.833 34.465C155.241 34.609 155.667 34.681 156.111 34.681C156.495 34.681 156.827 34.627 157.107 34.519C157.387 34.411 157.603 34.261 157.755 34.069C157.911 33.877 157.989 33.653 157.989 33.397C157.989 32.997 157.853 32.695 157.581 32.491C157.309 32.283 156.887 32.179 156.315 32.179H154.653V30.949H156.195C156.515 30.949 156.789 30.903 157.017 30.811C157.249 30.719 157.427 30.589 157.551 30.421C157.675 30.249 157.737 30.043 157.737 29.803C157.737 29.567 157.675 29.369 157.551 29.209C157.431 29.049 157.249 28.929 157.005 28.849C156.765 28.765 156.471 28.723 156.123 28.723C155.735 28.723 155.359 28.787 154.995 28.915C154.635 29.043 154.327 29.221 154.071 29.449L153.345 28.303C153.709 27.979 154.149 27.731 154.665 27.559C155.181 27.383 155.733 27.295 156.321 27.295C156.937 27.295 157.467 27.385 157.911 27.565C158.355 27.741 158.695 27.995 158.931 28.327C159.171 28.659 159.291 29.057 159.291 29.521C159.291 29.777 159.233 30.027 159.117 30.271C159.001 30.511 158.847 30.727 158.655 30.919C158.467 31.107 158.261 31.251 158.037 31.351C158.505 31.503 158.883 31.757 159.171 32.113C159.463 32.469 159.607 32.917 159.603 33.457C159.603 33.945 159.463 34.385 159.183 34.777C158.907 35.169 158.517 35.481 158.013 35.713C157.513 35.941 156.929 36.055 156.261 36.055Z" fill="#040404"/>
<path d="M161.301 35.875L164.523 27.475H166.263L169.551 35.875H167.793L167.079 33.973H163.701L163.011 35.875H161.301ZM164.085 32.647H166.683L165.363 29.239L164.085 32.647Z" fill="#040404"/>
<path d="M182.672 38.005V35.875H181.892V34.447H184.148V38.005H182.672ZM171.71 35.875V27.475H173.27V34.447H176.48V27.475H178.04V34.447H181.244V27.475H182.804V35.875H171.71Z" fill="#040404"/>
<path d="M186.527 35.875V27.475H188.075V33.361L192.011 27.475H193.535V35.875H191.987V29.941L188.039 35.875H186.527Z" fill="#040404"/>
<path d="M198.21 35.875V28.903H195.888V27.475H202.098V28.903H199.776V35.875H198.21Z" fill="#040404"/>
<path d="M202.954 35.875L206.176 27.475H207.916L211.204 35.875H209.446L208.732 33.973H205.354L204.664 35.875H202.954ZM205.738 32.647H208.336L207.016 29.239L205.738 32.647Z" fill="#040404"/>
<path d="M10.6125 17.875V11.2125C9.92917 11.4042 9.2625 11.5542 8.6125 11.6625C7.97083 11.7708 7.29167 11.825 6.575 11.825C5.24167 11.825 4.07917 11.6 3.0875 11.15C2.10417 10.7 1.34167 9.9875 0.8 9.0125C0.266667 8.02917 0 6.74583 0 5.1625V0.375H4.15V4.6C4.15 5.90833 4.425 6.82917 4.975 7.3625C5.525 7.89583 6.32083 8.1625 7.3625 8.1625C8.02083 8.1625 8.60417 8.12917 9.1125 8.0625C9.62083 7.9875 10.1208 7.89167 10.6125 7.775V0.375H14.7625V17.875H10.6125Z" fill="url(#paint0_linear_9487_981)"/>
<path d="M18.8955 17.875V0.375H23.008V11.3125L30.0955 0.375H34.2205V17.875H30.108V6.8L22.9955 17.875H18.8955Z" fill="url(#paint1_linear_9487_981)"/>
<path d="M46.4535 18.25C44.6452 18.25 43.0493 17.8792 41.666 17.1375C40.2827 16.3958 39.2035 15.3458 38.4285 13.9875C37.6535 12.6292 37.266 11.025 37.266 9.175C37.266 7.825 37.491 6.59167 37.941 5.475C38.3994 4.35 39.041 3.37917 39.866 2.5625C40.6993 1.74583 41.6785 1.11667 42.8035 0.675C43.9368 0.225 45.1743 0 46.516 0C47.9743 0 49.1993 0.183333 50.191 0.55C51.1827 0.916667 52.0785 1.4375 52.8785 2.1125L50.8035 5.525C50.3202 5.025 49.7368 4.65417 49.0535 4.4125C48.3702 4.1625 47.616 4.0375 46.791 4.0375C45.9743 4.0375 45.2452 4.15833 44.6035 4.4C43.9702 4.63333 43.4285 4.97083 42.9785 5.4125C42.5368 5.85417 42.1993 6.3875 41.966 7.0125C41.7327 7.6375 41.616 8.3375 41.616 9.1125C41.616 10.1792 41.8243 11.0917 42.241 11.85C42.666 12.6083 43.2702 13.1917 44.0535 13.6C44.8368 14 45.7743 14.2 46.866 14.2C47.6494 14.2 48.4244 14.0833 49.191 13.85C49.966 13.6083 50.6994 13.2208 51.391 12.6875L53.291 16.175C52.4827 16.8 51.516 17.3042 50.391 17.6875C49.266 18.0625 47.9535 18.25 46.4535 18.25Z" fill="url(#paint2_linear_9487_981)"/>
<path d="M58.8846 17.875V4.1625H54.2221V0.375H67.7221V4.1625H63.0596V17.875H58.8846Z" fill="url(#paint3_linear_9487_981)"/>
<path d="M77.8779 18.25C76.5363 18.25 75.2946 18.0208 74.1529 17.5625C73.0196 17.0958 72.0321 16.45 71.1904 15.625C70.3488 14.8 69.6946 13.8333 69.2279 12.725C68.7696 11.6167 68.5404 10.4167 68.5404 9.125C68.5404 7.825 68.7696 6.62083 69.2279 5.5125C69.6946 4.40417 70.3488 3.4375 71.1904 2.6125C72.0321 1.7875 73.0196 1.14583 74.1529 0.687499C75.2946 0.229166 76.5363 0 77.8779 0C79.2279 0 80.4696 0.233333 81.6029 0.7C82.7363 1.16667 83.7238 1.81667 84.5654 2.65C85.4071 3.48333 86.0571 4.45417 86.5154 5.5625C86.9821 6.6625 87.2154 7.85 87.2154 9.125C87.2154 10.4167 86.9821 11.6167 86.5154 12.725C86.0571 13.8333 85.4071 14.8 84.5654 15.625C83.7238 16.45 82.7363 17.0958 81.6029 17.5625C80.4696 18.0208 79.2279 18.25 77.8779 18.25ZM77.8779 14.35C78.6029 14.35 79.2654 14.2292 79.8654 13.9875C80.4738 13.7458 81.0029 13.3958 81.4529 12.9375C81.9029 12.4792 82.2488 11.9292 82.4904 11.2875C82.7404 10.6375 82.8654 9.91667 82.8654 9.125C82.8654 8.05833 82.6488 7.13333 82.2154 6.35C81.7904 5.56667 81.1988 4.9625 80.4404 4.5375C79.6904 4.10417 78.8363 3.8875 77.8779 3.8875C77.1613 3.8875 76.4988 4.0125 75.8904 4.2625C75.2821 4.50417 74.7529 4.85417 74.3029 5.3125C73.8613 5.77083 73.5154 6.32083 73.2654 6.9625C73.0154 7.60417 72.8904 8.325 72.8904 9.125C72.8904 10.1833 73.1071 11.1042 73.5404 11.8875C73.9738 12.6708 74.5654 13.2792 75.3154 13.7125C76.0738 14.1375 76.9279 14.35 77.8779 14.35Z" fill="url(#paint4_linear_9487_981)"/>
<path d="M96.0195 17.875V0.375H100.132V11.3125L107.22 0.375H111.345V17.875H107.232V6.8L100.12 17.875H96.0195Z" fill="url(#paint5_linear_9487_981)"/>
<path d="M124.314 17.875V4.1625H119.652V0.375H133.152V4.1625H128.489V17.875H124.314Z" fill="url(#paint6_linear_9487_981)"/>
<path d="M143.308 18.25C141.966 18.25 140.724 18.0208 139.583 17.5625C138.449 17.0958 137.462 16.45 136.62 15.625C135.778 14.8 135.124 13.8333 134.658 12.725C134.199 11.6167 133.97 10.4167 133.97 9.125C133.97 7.825 134.199 6.62083 134.658 5.5125C135.124 4.40417 135.778 3.4375 136.62 2.6125C137.462 1.7875 138.449 1.14583 139.583 0.687499C140.724 0.229166 141.966 0 143.308 0C144.658 0 145.899 0.233333 147.033 0.7C148.166 1.16667 149.153 1.81667 149.995 2.65C150.837 3.48333 151.487 4.45417 151.945 5.5625C152.412 6.6625 152.645 7.85 152.645 9.125C152.645 10.4167 152.412 11.6167 151.945 12.725C151.487 13.8333 150.837 14.8 149.995 15.625C149.153 16.45 148.166 17.0958 147.033 17.5625C145.899 18.0208 144.658 18.25 143.308 18.25ZM143.308 14.35C144.033 14.35 144.695 14.2292 145.295 13.9875C145.903 13.7458 146.433 13.3958 146.883 12.9375C147.333 12.4792 147.678 11.9292 147.92 11.2875C148.17 10.6375 148.295 9.91667 148.295 9.125C148.295 8.05833 148.078 7.13333 147.645 6.35C147.22 5.56667 146.628 4.9625 145.87 4.5375C145.12 4.10417 144.266 3.8875 143.308 3.8875C142.591 3.8875 141.928 4.0125 141.32 4.2625C140.712 4.50417 140.183 4.85417 139.733 5.3125C139.291 5.77083 138.945 6.32083 138.695 6.9625C138.445 7.60417 138.32 8.325 138.32 9.125C138.32 10.1833 138.537 11.1042 138.97 11.8875C139.403 12.6708 139.995 13.2792 140.745 13.7125C141.503 14.1375 142.358 14.35 143.308 14.35Z" fill="url(#paint7_linear_9487_981)"/>
<path d="M165.3 17.875V11.2125C164.617 11.4042 163.95 11.5542 163.3 11.6625C162.658 11.7708 161.979 11.825 161.262 11.825C159.929 11.825 158.767 11.6 157.775 11.15C156.792 10.7 156.029 9.9875 155.488 9.0125C154.954 8.02917 154.688 6.74583 154.688 5.1625V0.375H158.837V4.6C158.837 5.90833 159.113 6.82917 159.663 7.3625C160.213 7.89583 161.008 8.1625 162.05 8.1625C162.708 8.1625 163.292 8.12917 163.8 8.0625C164.308 7.9875 164.808 7.89167 165.3 7.775V0.375H169.45V17.875H165.3Z" fill="url(#paint8_linear_9487_981)"/>
<path d="M184.346 17.875L177.308 8.825L183.671 0.375H188.846L182.371 8.8125L189.683 17.875H184.346ZM173.583 17.875V0.375H177.733V6.8625H181.033V10.65H177.733V17.875H173.583Z" fill="url(#paint9_linear_9487_981)"/>
<path d="M190.138 17.875L196.676 0.375H201.488L208.088 17.875H203.413L202.176 14.325H195.901L194.688 17.875H190.138ZM196.838 10.8625H201.213L199.013 4.8125L196.838 10.8625Z" fill="url(#paint10_linear_9487_981)"/>
<defs>
<linearGradient id="paint0_linear_9487_981" x1="-1.0625" y1="9.375" x2="208.938" y2="9.375" gradientUnits="userSpaceOnUse">
<stop stop-color="#FFD943"/>
<stop offset="1" stop-color="#FFF4D4"/>
</linearGradient>
<linearGradient id="paint1_linear_9487_981" x1="-1.0625" y1="9.375" x2="208.938" y2="9.375" gradientUnits="userSpaceOnUse">
<stop stop-color="#FFD943"/>
<stop offset="1" stop-color="#FFF4D4"/>
</linearGradient>
<linearGradient id="paint2_linear_9487_981" x1="-1.0625" y1="9.375" x2="208.938" y2="9.375" gradientUnits="userSpaceOnUse">
<stop stop-color="#FFD943"/>
<stop offset="1" stop-color="#FFF4D4"/>
</linearGradient>
<linearGradient id="paint3_linear_9487_981" x1="-1.0625" y1="9.375" x2="208.938" y2="9.375" gradientUnits="userSpaceOnUse">
<stop stop-color="#FFD943"/>
<stop offset="1" stop-color="#FFF4D4"/>
</linearGradient>
<linearGradient id="paint4_linear_9487_981" x1="-1.0625" y1="9.375" x2="208.938" y2="9.375" gradientUnits="userSpaceOnUse">
<stop stop-color="#FFD943"/>
<stop offset="1" stop-color="#FFF4D4"/>
</linearGradient>
<linearGradient id="paint5_linear_9487_981" x1="-1.0625" y1="9.375" x2="208.938" y2="9.375" gradientUnits="userSpaceOnUse">
<stop stop-color="#FFD943"/>
<stop offset="1" stop-color="#FFF4D4"/>
</linearGradient>
<linearGradient id="paint6_linear_9487_981" x1="-1.0625" y1="9.375" x2="208.938" y2="9.375" gradientUnits="userSpaceOnUse">
<stop stop-color="#FFD943"/>
<stop offset="1" stop-color="#FFF4D4"/>
</linearGradient>
<linearGradient id="paint7_linear_9487_981" x1="-1.0625" y1="9.375" x2="208.938" y2="9.375" gradientUnits="userSpaceOnUse">
<stop stop-color="#FFD943"/>
<stop offset="1" stop-color="#FFF4D4"/>
</linearGradient>
<linearGradient id="paint8_linear_9487_981" x1="-1.0625" y1="9.375" x2="208.938" y2="9.375" gradientUnits="userSpaceOnUse">
<stop stop-color="#FFD943"/>
<stop offset="1" stop-color="#FFF4D4"/>
</linearGradient>
<linearGradient id="paint9_linear_9487_981" x1="-1.0625" y1="9.375" x2="208.938" y2="9.375" gradientUnits="userSpaceOnUse">
<stop stop-color="#FFD943"/>
<stop offset="1" stop-color="#FFF4D4"/>
</linearGradient>
<linearGradient id="paint10_linear_9487_981" x1="-1.0625" y1="9.375" x2="208.938" y2="9.375" gradientUnits="userSpaceOnUse">
<stop stop-color="#FFD943"/>
<stop offset="1" stop-color="#FFF4D4"/>
</linearGradient>
</defs>
</svg>
