<svg width="16" height="16" viewBox="0 0 16 16" fill="none" xmlns="http://www.w3.org/2000/svg">
<path d="M12.2954 15.9999C9.03576 15.9956 5.91083 14.6963 3.60591 12.3868C1.30099 10.0773 0.00422508 6.94616 0 3.68004C0 2.70406 0.386939 1.76805 1.0757 1.07792C1.76445 0.387799 2.69861 9.14345e-05 3.67265 9.14345e-05C3.87891 -0.00148278 4.08483 0.0172738 4.28742 0.0560906C4.48328 0.0851305 4.67582 0.133361 4.86227 0.200089C4.99341 0.246191 5.11027 0.325793 5.20128 0.431023C5.2923 0.536252 5.35433 0.663465 5.38124 0.80008L6.47505 5.60001C6.50453 5.7303 6.50098 5.86591 6.46472 5.99447C6.42846 6.12303 6.36065 6.24045 6.26746 6.336C6.16367 6.448 6.15569 6.456 5.17365 6.96799C5.96007 8.69665 7.33988 10.0849 9.06187 10.8799C9.58084 9.88795 9.58882 9.87995 9.7006 9.77595C9.79596 9.68258 9.91314 9.61463 10.0414 9.5783C10.1698 9.54197 10.3051 9.53841 10.4351 9.56795L15.2255 10.6639C15.3575 10.6946 15.4795 10.7584 15.5801 10.8494C15.6807 10.9404 15.7565 11.0555 15.8004 11.1839C15.8678 11.3738 15.9185 11.5692 15.9521 11.7679C15.9842 11.969 16.0002 12.1723 16 12.3759C15.9853 13.3477 15.5875 14.2742 14.8934 14.9532C14.1993 15.6322 13.2654 16.0084 12.2954 15.9999Z" fill="#8B8B8B"/>
</svg>
