<svg width="32" height="32" viewBox="0 0 32 32" fill="none" xmlns="http://www.w3.org/2000/svg">
<path d="M20.3008 0C29.9328 0 32 2.06402 32 11.6992V20.3008C32 29.9328 29.936 32 20.3008 32H11.6992C2.06722 32 0 29.936 0 20.3008V11.6992C0 2.06722 2.06402 0 11.6992 0H20.3008Z" fill="#67BDFF"/>
<path d="M23.28 24.6141C23.2126 24.7857 23.1101 24.9407 22.9794 25.0685C22.8486 25.1964 22.6927 25.2942 22.5219 25.3554C22.3512 25.4166 22.1696 25.4398 21.9894 25.4235C21.8091 25.4071 21.6344 25.3516 21.4769 25.2605L16.5918 21.3812L13.4565 24.3374C13.3838 24.3923 13.2987 24.4277 13.209 24.4402C13.1194 24.4527 13.0282 24.442 12.9437 24.409L13.5447 18.913L13.5639 18.9286L13.5762 18.8201C13.5762 18.8201 22.3668 10.6408 22.7249 10.2923C23.0874 9.94469 22.9678 9.86929 22.9678 9.86929C22.9884 9.44533 22.3172 9.86929 22.3172 9.86929L10.6699 17.5273L5.81941 15.839C5.81941 15.839 5.07442 15.5659 5.00424 14.9654C4.93046 14.3696 5.84369 14.0459 5.84369 14.0459L25.1289 6.21602C25.1289 6.21602 26.7143 5.49415 26.7143 6.6896L23.28 24.6141Z" fill="white"/>
</svg>
