<svg width="32" height="32" viewBox="0 0 32 32" fill="none" xmlns="http://www.w3.org/2000/svg">
<path d="M20.3008 0C29.9328 0 32 2.06402 32 11.6992V20.3008C32 29.9328 29.936 32 20.3008 32H11.6992C2.06722 32 0 29.936 0 20.3008V11.6992C0 2.06722 2.06402 0 11.6992 0H20.3008Z" fill="#6EF361"/>
<path d="M24.5341 7.50271C22.3106 5.2324 19.2371 4 16.0981 4C9.4278 4 4.06542 9.3838 4.13083 15.9351C4.13083 18.0108 4.7194 20.0216 5.7003 21.8378L4 28L10.3434 26.3784C12.109 27.3513 14.0709 27.8054 16.0327 27.8054C22.6376 27.8054 28 22.4216 28 15.8702C28 12.6919 26.7575 9.70814 24.5341 7.50271ZM16.0981 25.7946C14.3325 25.7946 12.5667 25.3405 11.0627 24.4324L10.6703 24.2378L6.87744 25.2108L7.85834 21.5135L7.59676 21.1243C4.7194 16.5189 6.09262 10.4216 10.8011 7.5676C15.5095 4.71351 21.5913 6.07566 24.4687 10.746C27.346 15.4162 25.9728 21.4487 21.2643 24.3027C19.7603 25.2757 17.9291 25.7946 16.0981 25.7946ZM21.8529 18.5946L21.1336 18.2702C21.1336 18.2702 20.0872 17.8162 19.4333 17.4919C19.3678 17.4919 19.3024 17.4271 19.2371 17.4271C19.0409 17.4271 18.9101 17.4919 18.7793 17.5567C18.7793 17.5567 18.7139 17.6216 17.7984 18.6595C17.733 18.7892 17.6022 18.854 17.4714 18.854H17.406C17.3406 18.854 17.2098 18.7892 17.1444 18.7243L16.8175 18.5946C16.0981 18.2702 15.4442 17.8811 14.921 17.3622C14.7902 17.2324 14.594 17.1027 14.4632 16.9729C14.0055 16.5189 13.5477 16 13.2207 15.4162L13.1553 15.2865C13.0899 15.2216 13.0899 15.1567 13.0246 15.0271C13.0246 14.8973 13.0246 14.7676 13.0899 14.7027C13.0899 14.7027 13.3515 14.3784 13.5477 14.1838C13.6785 14.054 13.7439 13.8595 13.8747 13.7298C14.0055 13.5351 14.0709 13.2757 14.0055 13.0811C13.94 12.7567 13.1553 11.0054 12.9591 10.6162C12.8283 10.4216 12.6976 10.3567 12.5014 10.2919H12.3052C12.1744 10.2919 11.9783 10.2919 11.782 10.2919C11.6513 10.2919 11.5204 10.3567 11.3897 10.3567L11.3243 10.4216C11.1934 10.4865 11.0627 10.6162 10.9319 10.6811C10.8011 10.8108 10.7357 10.9405 10.6049 11.0702C10.1471 11.654 9.88554 12.3676 9.88554 13.0811C9.88554 13.6 10.0164 14.1189 10.2125 14.5729L10.278 14.7676C10.8665 16 11.6513 17.1027 12.6976 18.0757L12.9591 18.3351C13.1553 18.5298 13.3515 18.6595 13.4823 18.854C14.8556 20.0216 16.4251 20.8649 18.1907 21.3189C18.387 21.3838 18.6485 21.3838 18.8447 21.4487C19.0409 21.4487 19.3024 21.4487 19.4987 21.4487C19.8256 21.4487 20.218 21.3189 20.4796 21.1892C20.6757 21.0595 20.8066 21.0595 20.9373 20.9298L21.0681 20.8C21.1989 20.6702 21.3297 20.6054 21.4605 20.4757C21.5913 20.346 21.722 20.2162 21.7875 20.0865C21.9183 19.8271 21.9836 19.5027 22.049 19.1784C22.049 19.0487 22.049 18.854 22.049 18.7243C22.049 18.7243 21.9836 18.6595 21.8529 18.5946Z" fill="white"/>
</svg>
